<svg width="80" height="80" viewBox="0 0 80 80" fill="none" xmlns="http://www.w3.org/2000/svg">
<path d="M0 40C0 28.9583 3.90625 19.5312 11.7188 11.7187C19.5312 3.90625 28.9583 0 40 0C51.0416 0 60.4687 3.90625 68.2813 11.7187C76.0937 19.5312 80 28.9583 80 40C80 51.0416 76.0938 60.4687 68.2813 68.2812C60.4688 76.0937 51.0417 80 40 80C28.9583 80 19.5312 76.0938 11.7188 68.2812C3.90625 60.4688 0 51.0415 0 40ZM4.375 40C4.375 49.7917 7.86458 58.177 14.8437 65.1563C21.8229 72.1353 30.2083 75.625 40 75.625C49.7917 75.625 58.1771 72.1354 65.1563 65.1563C72.1354 58.1771 75.625 49.7917 75.625 40C75.625 30.2083 72.1355 21.8229 65.1563 14.8437C58.1771 7.86458 49.7916 4.375 40 4.375C30.2083 4.375 21.823 7.86458 14.8437 14.8437C7.86458 21.8229 4.375 30.2083 4.375 40ZM15.6251 48.5937C15.4167 48.3854 15.4167 48.177 15.6251 47.9687C16.0417 47.552 16.5626 47.3958 17.1875 47.5C17.8125 47.6041 18.1771 47.7083 18.2812 47.8125C19.0104 48.125 19.8177 48.828 20.7031 49.9219C21.5884 51.0156 22.2916 51.7708 22.8125 52.1875C25.3125 54.2708 27.8645 54.427 30.4686 52.6562C30.677 51.927 31.0156 51.302 31.4842 50.7811C31.9529 50.2603 32.3957 49.8958 32.8124 49.6874C33.2291 49.479 33.9583 49.1665 35 48.7499C31.5624 48.4374 28.776 47.8384 26.6406 46.953C24.5051 46.0675 22.8124 44.9478 21.5624 43.5936C19.8957 41.7186 18.8801 39.2707 18.5155 36.2499C18.1508 33.2291 18.3852 30.4686 19.2187 27.9686C19.8437 26.4061 20.7291 25 21.8748 23.7499C21.0415 21.1457 21.1977 18.177 22.3436 14.8437C25.6769 15.052 28.6977 16.1978 31.4061 18.2812C36.6144 16.927 42.031 16.8749 47.656 18.1249C48.3851 17.6041 49.505 16.9531 51.0153 16.1717C52.5257 15.3905 54.4268 14.9477 56.7185 14.8436C57.1351 15.9894 57.4216 17.3436 57.5779 18.9061C57.7341 20.4686 57.656 21.9269 57.3435 23.2811C59.7393 25.7811 60.9893 29.1144 61.0934 33.2811C61.0934 36.6144 60.5206 39.3748 59.3748 41.5623C58.229 43.7498 56.1977 45.5727 53.281 47.031C51.3019 47.9685 48.6977 48.5414 45.4685 48.7497C46.927 49.4789 47.9946 50.2341 48.6717 51.0154C49.3489 51.7966 49.7915 53.0205 50 54.6872V59.6092L50.1561 64.3748C50.4686 64.8957 50.8333 65.3384 51.25 65.703C51.6666 66.0676 52.0312 66.328 52.3437 66.4843C52.6561 66.6405 52.7604 66.8749 52.6561 67.1874C52.5519 67.4999 52.1353 67.6562 51.4062 67.6562C49.6353 67.6562 48.2291 67.0312 47.1875 65.7811C46.875 65.2603 46.7187 64.6354 46.7187 63.9061V56.4061C46.7187 55.5728 46.5104 54.9738 46.0937 54.6092C45.677 54.2445 45.2604 54.0102 44.8437 53.906V63.7498C44.8437 65.5206 45.052 66.6664 45.4687 67.1873C45.8854 67.7081 46.1458 68.229 46.25 68.7498C46.3542 68.8539 46.276 68.932 46.0156 68.9841C45.7553 69.0361 45.3125 68.9581 44.6875 68.7498C43.3333 68.4373 42.3958 67.7341 41.875 66.6404C41.3541 65.5466 41.0937 64.3747 41.0937 63.1247V53.4375H39.0625V63.1249C39.0625 64.3749 38.802 65.5729 38.2811 66.7187C37.552 68.1771 36.1978 68.9583 34.2187 69.0624C33.9062 68.9583 33.75 68.8541 33.75 68.75C33.8541 68.6458 34.1666 68.125 34.6875 67.1875C34.7916 66.9792 34.9219 66.5625 35.0781 65.9375C35.2345 65.3125 35.3125 64.5834 35.3125 63.75V53.9062C34.8959 54.0104 34.5052 54.2447 34.1406 54.6094C33.776 54.974 33.5937 55.5729 33.5937 56.4063V63.9063C33.5937 64.6354 33.4375 65.2604 33.125 65.7813C32.1875 67.0313 30.7812 67.6563 28.9063 67.6563C28.1771 67.6563 27.7605 67.5001 27.6563 67.1876C27.5521 66.9793 27.5781 66.7969 27.7345 66.6407C27.8908 66.4844 28.1251 66.3021 28.4376 66.0938C28.7501 65.8854 28.9585 65.7291 29.0626 65.625C29.4793 65.3125 29.7917 64.8959 30.0001 64.375C30.3126 63.9584 30.3907 62.8646 30.2345 61.0938C30.0782 59.3229 30.0521 58.1771 30.1563 57.6563C27.4479 58.5938 24.6876 58.1249 21.875 56.25C21.0416 55.4167 20.2083 54.2187 19.375 52.6563C18.75 51.5104 17.5 50.1562 15.6251 48.5937Z" fill="black"/>
</svg>
