<svg width="580" height="400" xmlns="http://www.w3.org/2000/svg">
 <!-- Created with SVG Editor - http://github.com/mzalive/SVG Editor/ -->

 <g>
  <title>background</title>
  <rect fill="#fff" id="canvas_background" height="402" width="582" y="-1" x="-1"/>
  <g display="none" overflow="visible" y="0" x="0" height="100%" width="100%" id="canvasGrid">
   <rect fill="url(#gridpattern)" stroke-width="0" y="0" x="0" height="100%" width="100%"/>
  </g>
 </g>
 <g>
  <title>Layer 1</title>
  <g fill="#fff" id="svg_5">
   <path id="svg_4" fill="#ff7f00" d="m178.888901,200.000007c0,-30.671387 10.850694,-56.857775 32.552221,-78.559163c21.70111,-21.701249 47.887498,-32.551943 78.558885,-32.551943c30.67111,0 56.857497,10.850694 78.559163,32.551943c21.70111,21.701388 32.551943,47.887775 32.551943,78.559163c0,30.67111 -10.850555,56.857497 -32.551943,78.558885c-21.701388,21.701388 -47.887775,32.552221 -78.559163,32.552221c-30.671387,0 -56.857775,-10.850555 -78.558885,-32.552221c-21.701527,-21.70111 -32.552221,-47.888053 -32.552221,-78.558885zm12.152777,0c0,27.199165 9.693277,50.491664 29.079721,69.878608c19.386666,19.38611 42.679442,29.079721 69.878608,29.079721c27.199165,0 50.491942,-9.693333 69.878608,-29.079721c19.386388,-19.386666 29.079721,-42.679442 29.079721,-69.878608c0,-27.199165 -9.693055,-50.491942 -29.079721,-69.878608c-19.386666,-19.386444 -42.67972,-29.079721 -69.878608,-29.079721c-27.199165,0 -50.491664,9.693277 -69.878608,29.079721c-19.386444,19.386666 -29.079721,42.679442 -29.079721,69.878608zm31.250276,23.871388c-0.578889,-0.578611 -0.578889,-1.1575 0,-1.736111c1.157222,-1.1575 2.604167,-1.591389 4.34,-1.301944c1.736111,0.289167 2.748889,0.578611 3.038055,0.868056c2.025555,0.868056 4.268055,2.820833 6.7275,5.859444c2.459167,3.038055 4.4125,5.135833 5.859444,6.293333c6.944444,5.786944 14.033333,6.220833 21.266943,1.301944c0.578889,-2.025555 1.519444,-3.761666 2.821111,-5.208611c1.301944,-1.446667 2.531944,-2.459167 3.689444,-3.038055c1.1575,-0.578889 3.183055,-1.446944 6.076666,-2.604167c-9.548888,-0.868056 -17.288888,-2.531944 -23.220554,-4.991389c-5.931944,-2.459722 -10.633888,-5.57 -14.10611,-9.331666c-4.629722,-5.208333 -7.450833,-12.008055 -8.463611,-20.399166c-1.013056,-8.391111 -0.361944,-16.059166 1.953333,-23.00361c1.736111,-4.340278 4.195555,-8.246111 7.378055,-11.718611c-2.314722,-7.233889 -1.880833,-15.480277 1.302222,-24.739443c9.259166,0.578611 17.650277,3.761389 25.17361,9.548611c14.467499,-3.761666 29.51361,-3.906389 45.138609,-0.434167c2.025278,-1.446667 5.136111,-3.255 9.331388,-5.425555c4.195555,-2.17 9.476388,-3.4 15.842221,-3.689166c1.157222,3.182778 1.953055,6.944444 2.387222,11.284722c0.433889,4.340278 0.216944,8.391111 -0.651111,12.152777c6.655,6.944444 10.127222,16.20361 10.416388,27.777776c0,9.259166 -1.591111,16.926944 -4.773889,23.003332c-3.182778,6.076389 -8.825277,11.139999 -16.927221,15.190833c-5.4975,2.604167 -12.731388,4.195555 -21.701388,4.774166c4.051389,2.025555 7.016944,4.123333 8.897777,6.293611c1.881111,2.17 3.110555,5.569722 3.689722,10.199444l0,13.672222l0.433611,13.237777c0.868056,1.446944 1.881111,2.676667 3.038611,3.689444c1.157222,1.012778 2.17,1.736111 3.038055,2.170278c0.867778,0.433889 1.1575,1.085 0.867778,1.953055c-0.289444,0.868056 -1.446667,1.302222 -3.471944,1.302222c-4.919166,0 -8.825277,-1.736111 -11.718611,-5.208611c-0.868056,-1.446667 -1.302222,-3.1825 -1.302222,-5.208333l0,-20.833332c0,-2.314722 -0.578611,-3.978611 -1.736111,-4.991389c-1.1575,-1.013056 -2.314722,-1.663889 -3.472222,-1.953333l0,27.343888c0,4.918889 0.578611,8.101666 1.736111,9.548611c1.1575,1.446667 1.880833,2.893611 2.170278,4.340278c0.289444,0.289167 0.072222,0.506111 -0.651111,0.650833c-0.723056,0.144444 -1.953055,-0.072222 -3.689166,-0.650833c-3.761666,-0.868056 -6.365833,-2.821389 -7.8125,-5.859444c-1.446944,-3.038333 -2.170278,-6.293611 -2.170278,-9.765833l0,-26.908888l-5.642222,0l0,26.909443c0,3.472222 -0.723611,6.8 -2.170555,9.982777c-2.025278,4.051111 -5.786944,6.221111 -11.284444,6.510277c-0.868056,-0.289167 -1.301944,-0.578611 -1.301944,-0.867778c0.289167,-0.289444 1.157222,-1.736111 2.604167,-4.340278c0.289167,-0.578611 0.651111,-1.736111 1.085,-3.472222c0.434444,-1.736111 0.651111,-3.761389 0.651111,-6.076389l0,-27.343888c-1.157222,0.289444 -2.2425,0.940278 -3.255278,1.953333c-1.012778,1.012778 -1.519167,2.676389 -1.519167,4.991389l0,20.833332c0,2.025278 -0.433889,3.761389 -1.301944,5.208333c-2.604167,3.472222 -6.510555,5.208333 -11.718611,5.208333c-2.025555,0 -3.182778,-0.433889 -3.472222,-1.301944c-0.289444,-0.578611 -0.217222,-1.085278 0.217222,-1.519167c0.434167,-0.434167 1.085,-0.940556 1.953055,-1.519167c0.868056,-0.578889 1.446944,-1.013056 1.736111,-1.302222c1.1575,-0.868056 2.025278,-2.025278 2.604167,-3.472222c0.868056,-1.157222 1.085,-4.195555 0.651111,-9.114444c-0.434167,-4.919166 -0.506667,-8.101944 -0.217222,-9.548611c-7.523333,2.604167 -15.190833,1.301667 -23.00361,-3.906389c-2.315,-2.314722 -4.629722,-5.6425 -6.944444,-9.9825c-1.736111,-3.183055 -5.208333,-6.944722 -10.416388,-11.284999z"/>
  </g>
 </g>
</svg>